<svg width="134" height="148" viewBox="0 0 134 148" fill="none"
  xmlns="http://www.w3.org/2000/svg">
  <path opacity="0.4" d="M97.6134 0H35.594C13.098 0 0 13.172 0 35.742V112.184C0 135.124 13.098 148 35.594 148H97.6134C120.472 148 133.2 135.124 133.2 112.184V35.742C133.2 13.172 120.472 0 97.6134 0Z" fill="#E0E0E0"/>
  <path fill-rule="evenodd" clip-rule="evenodd" d="M37.5918 34.4099V34.4839C34.4024 34.4839 31.8198 37.0739 31.8198 40.2559C31.8198 43.4379 34.4024 46.0279 37.5918 46.0279H59.7104C62.8998 46.0279 65.4898 43.4379 65.4898 40.1745C65.4898 36.9999 62.8998 34.4099 59.7104 34.4099H37.5918ZM95.6078 79.4759H37.5918C34.4024 79.4759 31.8198 76.8859 31.8198 73.7039C31.8198 70.5219 34.4024 67.9245 37.5918 67.9245H95.6078C98.7898 67.9245 101.38 70.5219 101.38 73.7039C101.38 76.8859 98.7898 79.4759 95.6078 79.4759ZM95.6078 113.294H37.5918C35.3718 113.59 33.2258 112.48 32.0418 110.63C30.8578 108.706 30.8578 106.264 32.0418 104.414C33.2258 102.49 35.3718 101.454 37.5918 101.676H95.6078C98.5604 101.972 100.788 104.488 100.788 107.522C100.788 110.475 98.5604 112.998 95.6078 113.294Z" fill="#D7D7D7"/>
</svg>
