<svg width="15" height="15" viewBox="0 0 15 15" fill="none"
  xmlns="http://www.w3.org/2000/svg">
  <path d="M14.1429 6.96429C14.1429 6.43192 13.7109 6 13.1786 6H9V1.82143C9 1.28906 8.56808 0.857142 8.03571 0.857142H6.10714C5.57478 0.857142 5.14286 1.28906 5.14286 1.82143V6H0.964286C0.43192 6 0 6.43192 0 6.96429V8.89286C0 9.42522 0.43192 9.85714 0.964286 9.85714H5.14286V14.0357C5.14286 14.5681 5.57478 15 6.10714 15H8.03571C8.56808 15 9 14.5681 9 14.0357V9.85714H13.1786C13.7109 9.85714 14.1429 9.42522 14.1429 8.89286V6.96429Z" fill="#0E4944"/>
</svg>
