<svg width="228" height="79" viewBox="0 0 228 79" fill="none"
  xmlns="http://www.w3.org/2000/svg">
  <g clip-path="url(#clip0)">
    <path d="M4.85352 58V23H24.5035C26.1702 23 27.6702 23.3833 29.0035 24.15C30.3702 24.8833 31.4535 25.9167 32.2535 27.25C33.0868 28.5833 33.5035 30.1667 33.5035 32C33.5035 33.1667 33.2702 34.2833 32.8035 35.35C32.3368 36.3833 31.7035 37.2833 30.9035 38.05C30.1035 38.8167 29.1702 39.4167 28.1035 39.85C29.3369 40.25 30.4202 40.9 31.3535 41.8C32.3202 42.6667 33.0702 43.7 33.6035 44.9C34.1702 46.0667 34.4535 47.3333 34.4535 48.7C34.4535 50.5667 34.0202 52.2 33.1535 53.6C32.3202 55 31.2035 56.0833 29.8035 56.85C28.4035 57.6167 26.8368 58 25.1035 58H4.85352ZM12.0035 51.7H23.0535C23.8535 51.7 24.5702 51.5167 25.2035 51.15C25.8369 50.75 26.3369 50.2333 26.7035 49.6C27.1035 48.9333 27.3035 48.2167 27.3035 47.45C27.3035 46.65 27.1035 45.9333 26.7035 45.3C26.3369 44.6667 25.8369 44.1667 25.2035 43.8C24.5702 43.4 23.8535 43.2 23.0535 43.2H12.0035V51.7ZM12.0035 37.2H22.4035C23.1369 37.2 23.8035 37.0333 24.4035 36.7C25.0035 36.3333 25.4702 35.85 25.8035 35.25C26.1702 34.65 26.3535 33.9833 26.3535 33.25C26.3535 32.5167 26.1702 31.85 25.8035 31.25C25.4702 30.65 25.0035 30.1833 24.4035 29.85C23.8035 29.4833 23.1369 29.3 22.4035 29.3H12.0035V37.2ZM51.5467 58.6C49.2133 58.6 47.18 58 45.4467 56.8C43.7133 55.6 42.3633 54 41.3967 52C40.4633 49.9667 39.9967 47.7333 39.9967 45.3C39.9967 42.8 40.53 40.5333 41.5967 38.5C42.6967 36.4667 44.2633 34.8667 46.2967 33.7C48.33 32.5 50.7633 31.9 53.5967 31.9C56.4633 31.9 58.88 32.5 60.8467 33.7C62.8133 34.9 64.3133 36.5167 65.3467 38.55C66.38 40.5833 66.8967 42.8333 66.8967 45.3V58H60.0467V53.75H59.9467C59.4467 54.65 58.8133 55.4667 58.0467 56.2C57.3133 56.9333 56.4133 57.5167 55.3467 57.95C54.28 58.3833 53.0133 58.6 51.5467 58.6ZM53.4967 52.75C54.83 52.75 55.98 52.4167 56.9467 51.75C57.9133 51.0833 58.6467 50.1833 59.1467 49.05C59.68 47.8833 59.9467 46.6 59.9467 45.2C59.9467 43.8 59.68 42.55 59.1467 41.45C58.6467 40.3167 57.9133 39.4167 56.9467 38.75C55.98 38.0833 54.83 37.75 53.4967 37.75C52.13 37.75 50.9467 38.0833 49.9467 38.75C48.98 39.4167 48.23 40.3167 47.6967 41.45C47.1967 42.55 46.9467 43.8 46.9467 45.2C46.9467 46.6 47.1967 47.8833 47.6967 49.05C48.23 50.1833 48.98 51.0833 49.9467 51.75C50.9467 52.4167 52.13 52.75 53.4967 52.75ZM79.0171 68.15V62.3H92.1171C92.5838 62.3 92.9671 62.1333 93.2671 61.8C93.5671 61.5 93.7171 61.1333 93.7171 60.7V54.45H93.6671C92.9005 55.3167 92.1171 56.0167 91.3171 56.55C90.5171 57.0833 89.6505 57.4833 88.7171 57.75C87.8171 57.9833 86.8171 58.1 85.7171 58.1C83.4505 58.1 81.4005 57.5667 79.5671 56.5C77.7671 55.4 76.3338 53.8667 75.2671 51.9C74.2005 49.9333 73.6671 47.65 73.6671 45.05C73.6671 42.5833 74.1838 40.3667 75.2171 38.4C76.2838 36.4 77.8171 34.8167 79.8171 33.65C81.8171 32.4833 84.2505 31.9 87.1171 31.9C89.8838 31.9 92.2671 32.4667 94.2671 33.6C96.2671 34.7333 97.8171 36.3333 98.9171 38.4C100.017 40.4667 100.567 42.9167 100.567 45.75V60.9C100.567 63.1333 99.9171 64.9 98.6171 66.2C97.3505 67.5 95.5838 68.15 93.3171 68.15H79.0171ZM87.1171 52.25C88.4838 52.25 89.6505 51.9333 90.6171 51.3C91.5838 50.6667 92.3171 49.8333 92.8171 48.8C93.3505 47.7333 93.6171 46.55 93.6171 45.25C93.6171 43.85 93.3505 42.5833 92.8171 41.45C92.3171 40.3167 91.5838 39.4167 90.6171 38.75C89.6505 38.0833 88.4838 37.75 87.1171 37.75C85.7838 37.75 84.6171 38.0833 83.6171 38.75C82.6505 39.3833 81.9005 40.25 81.3671 41.35C80.8671 42.45 80.6171 43.6833 80.6171 45.05C80.6171 46.3833 80.8671 47.6 81.3671 48.7C81.9005 49.7667 82.6505 50.6333 83.6171 51.3C84.6171 51.9333 85.7838 52.25 87.1171 52.25ZM121.443 58C118.543 58 116.01 57.45 113.843 56.35C111.71 55.2167 110.043 53.6833 108.843 51.75C107.677 49.8167 107.093 47.65 107.093 45.25C107.093 42.55 107.643 40.2 108.743 38.2C109.843 36.2 111.343 34.65 113.243 33.55C115.143 32.45 117.293 31.9 119.693 31.9C122.56 31.9 124.877 32.5 126.643 33.7C128.443 34.9 129.76 36.5167 130.593 38.55C131.427 40.55 131.843 42.7833 131.843 45.25C131.843 45.5833 131.827 45.9833 131.793 46.45C131.76 46.8833 131.71 47.2167 131.643 47.45H114.393C114.66 48.4833 115.11 49.35 115.743 50.05C116.41 50.75 117.227 51.2833 118.193 51.65C119.193 51.9833 120.31 52.15 121.543 52.15H128.643V58H121.443ZM114.343 42.85H124.993C124.927 42.2167 124.81 41.6333 124.643 41.1C124.477 40.5333 124.243 40.0333 123.943 39.6C123.643 39.1667 123.293 38.8 122.893 38.5C122.493 38.2 122.027 37.9667 121.493 37.8C120.96 37.6333 120.377 37.55 119.743 37.55C118.91 37.55 118.16 37.7 117.493 38C116.86 38.3 116.327 38.7 115.893 39.2C115.46 39.7 115.11 40.2667 114.843 40.9C114.61 41.5333 114.443 42.1833 114.343 42.85ZM151.305 58C148.405 58 145.872 57.45 143.705 56.35C141.572 55.2167 139.905 53.6833 138.705 51.75C137.539 49.8167 136.955 47.65 136.955 45.25C136.955 42.55 137.505 40.2 138.605 38.2C139.705 36.2 141.205 34.65 143.105 33.55C145.005 32.45 147.155 31.9 149.555 31.9C152.422 31.9 154.739 32.5 156.505 33.7C158.305 34.9 159.622 36.5167 160.455 38.55C161.289 40.55 161.705 42.7833 161.705 45.25C161.705 45.5833 161.689 45.9833 161.655 46.45C161.622 46.8833 161.572 47.2167 161.505 47.45H144.255C144.522 48.4833 144.972 49.35 145.605 50.05C146.272 50.75 147.089 51.2833 148.055 51.65C149.055 51.9833 150.172 52.15 151.405 52.15H158.505V58H151.305ZM144.205 42.85H154.855C154.789 42.2167 154.672 41.6333 154.505 41.1C154.339 40.5333 154.105 40.0333 153.805 39.6C153.505 39.1667 153.155 38.8 152.755 38.5C152.355 38.2 151.889 37.9667 151.355 37.8C150.822 37.6333 150.239 37.55 149.605 37.55C148.772 37.55 148.022 37.7 147.355 38C146.722 38.3 146.189 38.7 145.755 39.2C145.322 39.7 144.972 40.2667 144.705 40.9C144.472 41.5333 144.305 42.1833 144.205 42.85Z" fill="white"/>
    <path d="M171.717 58.6C170.451 58.6 169.351 58.15 168.417 57.25C167.517 56.3167 167.067 55.2167 167.067 53.95C167.067 52.6833 167.517 51.6 168.417 50.7C169.351 49.7667 170.451 49.3 171.717 49.3C172.984 49.3 174.067 49.7667 174.967 50.7C175.901 51.6 176.367 52.6833 176.367 53.95C176.367 54.7833 176.151 55.5667 175.717 56.3C175.317 57 174.767 57.5667 174.067 58C173.367 58.4 172.584 58.6 171.717 58.6ZM183.384 58V32.5H190.284V58H183.384ZM186.834 29.45C185.668 29.45 184.651 29.0333 183.784 28.2C182.951 27.3333 182.534 26.3167 182.534 25.15C182.534 23.9833 182.951 22.9833 183.784 22.15C184.651 21.2833 185.668 20.85 186.834 20.85C188.001 20.85 189.001 21.2833 189.834 22.15C190.701 22.9833 191.134 23.9833 191.134 25.15C191.134 26.3167 190.701 27.3333 189.834 28.2C189.001 29.0333 188.001 29.45 186.834 29.45ZM198.5 58V43.35C198.5 41.25 198.983 39.3333 199.95 37.6C200.95 35.8667 202.383 34.4833 204.25 33.45C206.117 32.4167 208.35 31.9 210.95 31.9C213.583 31.9 215.817 32.4167 217.65 33.45C219.517 34.4833 220.933 35.8667 221.9 37.6C222.9 39.3333 223.4 41.25 223.4 43.35V58H216.55V43.35C216.55 42.3167 216.3 41.3833 215.8 40.55C215.3 39.6833 214.617 39 213.75 38.5C212.917 38 211.983 37.75 210.95 37.75C209.917 37.75 208.967 38 208.1 38.5C207.267 39 206.6 39.6833 206.1 40.55C205.6 41.3833 205.35 42.3167 205.35 43.35V58H198.5Z" fill="#9BD35A"/>
    <path d="M121.429 66.9911C129.471 72.8343 140.728 71.0515 146.571 63.0089" stroke="#DEDEDE" stroke-width="4" stroke-linecap="round"/>
  </g>
  <defs>
    <clipPath id="clip0">
      <rect width="228" height="79" fill="white"/>
    </clipPath>
  </defs>
</svg>
