<svg width="32" height="23" viewBox="0 0 32 23" fill="none"
  xmlns="http://www.w3.org/2000/svg">
  <path d="M31.0813 19.4041V3.5957C31.0813 1.93885 29.7381 0.595703 28.0813 0.595703H10.534C9.64364 0.595703 8.7993 0.991172 8.22931 1.67515L1.64602 9.57511C0.758097 10.6406 0.71634 12.1759 1.54504 13.2881L7.43755 21.1965C8.00372 21.9564 8.8956 22.4041 9.8432 22.4041H28.0813C29.7381 22.4041 31.0813 21.0609 31.0813 19.4041Z" fill="#0B0D27"/>
  <path d="M24.0193 15.9399C24.1139 16.0337 24.1672 16.1615 24.1672 16.2949C24.1672 16.4282 24.1139 16.556 24.0193 16.6499L23.3193 17.3499C23.2254 17.4445 23.0976 17.4978 22.9643 17.4978C22.831 17.4978 22.7032 17.4445 22.6093 17.3499L18.1693 12.9099L13.7293 17.3499C13.6354 17.4445 13.5076 17.4978 13.3743 17.4978C13.241 17.4978 13.1132 17.4445 13.0193 17.3499L12.3193 16.6499C12.2246 16.556 12.1714 16.4282 12.1714 16.2949C12.1714 16.1615 12.2246 16.0337 12.3193 15.9399L16.7593 11.4999L12.3193 7.05985C12.2246 6.96597 12.1714 6.83817 12.1714 6.70485C12.1714 6.57153 12.2246 6.44374 12.3193 6.34985L13.0193 5.64985C13.1132 5.5552 13.241 5.50195 13.3743 5.50195C13.5076 5.50195 13.6354 5.5552 13.7293 5.64985L18.1693 10.0899L22.6093 5.64985C22.7032 5.5552 22.831 5.50195 22.9643 5.50195C23.0976 5.50195 23.2254 5.5552 23.3193 5.64985L24.0193 6.34985C24.1139 6.44374 24.1672 6.57153 24.1672 6.70485C24.1672 6.83817 24.1139 6.96597 24.0193 7.05985L19.5793 11.4999L24.0193 15.9399Z" fill="white"/>
</svg>
