<svg width="20" height="20" viewBox="0 0 20 20" fill="none"
  xmlns="http://www.w3.org/2000/svg">
  <path fill-rule="evenodd" clip-rule="evenodd" d="M19.4912 3.44315V6.30531C19.5006 7.08351 19.2068 7.83365 18.6743 8.3907C18.1419 8.9477 17.4145 9.266 16.6522 9.2755H15.4884C15.0941 9.2324 14.7951 8.8927 14.7951 8.4879C14.7951 8.0831 15.0941 7.74347 15.4884 7.70038H16.6169C16.9739 7.69801 17.3152 7.55035 17.5651 7.29015C17.8151 7.02994 17.953 6.67869 17.9483 6.31431V3.44315C17.9388 2.69661 17.3482 2.09378 16.6169 2.08408H13.8044C13.0691 2.08408 12.4731 2.69256 12.4731 3.44315V7.73638C12.4587 8.1717 12.1062 8.5156 11.6796 8.5104C11.4746 8.5057 11.2799 8.4174 11.1391 8.2652C10.9983 8.113 10.923 7.9096 10.9302 7.70038V3.44315C10.9278 2.66341 11.2296 1.91478 11.7689 1.36257C12.3082 0.81036 13.0406 0.5 13.8044 0.5H16.6169C18.192 0.53818 19.4586 1.83515 19.4912 3.44315ZM6.19559 0.5H3.38306C1.7948 0.50983 0.50963 1.82178 0.5 3.44315V6.31431C0.50967 7.9342 1.79622 9.2436 3.38306 9.2485H6.19559C6.95942 9.2509 7.69276 8.9428 8.2337 8.3923C8.7746 7.84173 9.0787 7.09405 9.0787 6.31431V3.44315C9.0738 1.81975 7.78585 0.50494 6.19559 0.5ZM7.52691 6.31431C7.53162 6.67869 7.39372 7.02994 7.14379 7.29015C6.89386 7.55035 6.55256 7.69801 6.19559 7.70038H3.38306C3.02078 7.7078 2.67118 7.56416 2.41496 7.30259C2.15873 7.04102 2.01802 6.68414 2.02529 6.31431V3.44315C2.02522 3.07798 2.16911 2.72814 2.42453 2.47247C2.67995 2.21681 3.02541 2.07683 3.38306 2.08408H6.19559C6.92886 2.08899 7.52211 2.6946 7.52691 3.44315V6.31431ZM13.8044 10.7515H16.6169C18.2038 10.7564 19.4903 12.0658 19.5 13.6857V16.5568C19.4904 18.1782 18.2052 19.4902 16.6169 19.5H13.8044C12.2176 19.4901 10.935 18.1768 10.9302 16.5568V13.6857C10.9302 12.0652 12.217 10.7515 13.8044 10.7515ZM17.5609 17.5205C17.8111 17.2651 17.9506 16.918 17.9483 16.5568V13.6857C17.9483 13.3252 17.808 12.9796 17.5583 12.7247C17.3087 12.4698 16.97 12.3266 16.6169 12.3266H13.8044C13.0691 12.3266 12.4731 12.9351 12.4731 13.6857V16.5568C12.4707 16.918 12.6102 17.2651 12.8604 17.5205C13.1106 17.7759 13.4506 17.9183 13.8044 17.9159H16.6169C16.9707 17.9183 17.3107 17.7759 17.5609 17.5205ZM0.5 16.5479V13.6857C0.5 12.906 0.80403 12.1583 1.34496 11.6078C1.8859 11.0572 2.61924 10.7492 3.38306 10.7516H4.53805C4.83336 10.7193 5.12081 10.8619 5.27835 11.1189C5.4359 11.376 5.4359 11.7022 5.27835 11.9592C5.12081 12.2163 4.83336 12.3589 4.53805 12.3266H3.38306C2.64635 12.3266 2.04777 12.9337 2.04292 13.6857V16.5209C2.06166 17.2669 2.65217 17.8657 3.38306 17.8799H6.21322C6.56784 17.8823 6.90874 17.7402 7.16032 17.4851C7.4119 17.2299 7.55337 16.8829 7.55336 16.5209V12.2636C7.49586 11.9457 7.63341 11.624 7.90087 11.4509C8.1683 11.2778 8.512 11.288 8.7692 11.4767C9.0263 11.6654 9.1453 11.9947 9.0698 12.3086V16.5479C9.0698 18.1733 7.77905 19.491 6.18677 19.491H3.38306C1.80456 19.4576 0.53275 18.1593 0.5 16.5479Z" fill="white"/>
</svg>
