<svg width="133" height="133" viewBox="0 0 133 133" fill="none"
  xmlns="http://www.w3.org/2000/svg">
  <path opacity="0.07" d="M66.9959 132.997C61.9203 132.997 56.8513 131.069 52.9769 127.221L48.1587 122.403C46.2908 120.542 43.7893 119.512 41.136 119.505H34.3576C23.4012 119.505 14.4843 110.588 14.4843 99.6315V92.8462C14.4777 90.1994 13.4481 87.6978 11.5802 85.8167L6.84122 81.0842C-0.92066 73.3683 -0.953661 60.7548 6.76861 52.9861L11.5868 48.1612C13.4481 46.2932 14.4777 43.7917 14.4843 41.1383V34.3662C14.4843 23.4029 23.4012 14.4857 34.3576 14.4857H41.1426C43.7893 14.4857 46.2842 13.456 48.1653 11.5749L52.9109 6.84233C60.6267 -0.919795 73.2331 -0.959398 81.0082 6.76973L85.8264 11.5881C87.7008 13.456 90.1957 14.4857 92.8424 14.4857H99.6274C110.584 14.4857 119.501 23.4029 119.501 34.3662V41.1449C119.507 43.7917 120.537 46.2932 122.405 48.1744L127.144 52.9135C130.899 56.6493 132.978 61.6261 132.998 66.9394C133.011 72.2198 130.979 77.1899 127.276 80.9456C127.21 81.0116 127.15 81.0842 127.084 81.1436L122.398 85.8299C120.537 87.6978 119.507 90.1994 119.501 92.8528V99.6315C119.501 110.588 110.584 119.505 99.6274 119.505H92.8424C90.1957 119.512 87.6942 120.542 85.8198 122.41L81.0742 127.149C77.2064 131.043 72.0979 132.997 66.9959 132.997Z" fill="#0E4944"/>
  <path d="M66.9965 114.993C63.3053 114.993 59.6189 113.592 56.8013 110.793L53.2972 107.289C51.9389 105.936 50.1196 105.187 48.19 105.182H43.2604C35.2924 105.182 28.8076 98.6975 28.8076 90.7295V85.7951C28.8028 83.8703 28.054 82.0511 26.6956 80.6831L23.2492 77.2415C17.6044 71.6303 17.5804 62.4575 23.1964 56.8079L26.7004 53.2991C28.054 51.9407 28.8028 50.1215 28.8076 48.1919V43.2671C28.8076 35.2943 35.2924 28.8095 43.2604 28.8095H48.1948C50.1196 28.8095 51.934 28.0607 53.302 26.6927L56.7533 23.2511C62.3645 17.6063 71.5325 17.5775 77.1869 23.1983L80.6909 26.7023C82.0541 28.0607 83.8685 28.8095 85.7933 28.8095H90.7277C98.6957 28.8095 105.181 35.2943 105.181 43.2671V48.1967C105.185 50.1215 105.934 51.9407 107.293 53.3087L110.739 56.7551C113.47 59.4719 114.982 63.0911 114.997 66.9551C115.006 70.7951 113.528 74.4095 110.835 77.1407C110.787 77.1887 110.744 77.2415 110.696 77.2847L107.288 80.6927C105.934 82.0511 105.185 83.8703 105.181 85.7999V90.7295C105.181 98.6975 98.6957 105.182 90.7277 105.182H85.7933C83.8685 105.187 82.0493 105.936 80.6861 107.294L77.2349 110.741C74.4221 113.573 70.7069 114.993 66.9965 114.993Z" fill="#0E4944"/>
  <path d="M62.1845 80C61.2754 80 60.3662 79.6598 59.6722 78.9754L50.041 69.4783C48.653 68.1096 48.653 65.8924 50.041 64.5277C51.4291 63.1589 53.6735 63.1549 55.0615 64.5237L62.1845 71.5474L78.9385 55.0266C80.3265 53.6578 82.5709 53.6578 83.959 55.0266C85.347 56.3953 85.347 58.6125 83.959 59.9812L64.6968 78.9754C64.0028 79.6598 63.0936 80 62.1845 80Z" fill="white"/>
</svg>
