<svg width="9" height="15" viewBox="0 0 9 15" fill="none"
  xmlns="http://www.w3.org/2000/svg">
  <path d="M8.27464 9.934C8.27464 9.136 8.02264 8.492 7.50464 8.002C7.01464 7.512 6.21664 7.092 5.12464 6.756V3.55C5.85264 3.704 6.38464 4.194 6.70664 5.006L8.12064 4.236C7.67264 3.06 6.65064 2.15 5.13864 1.968L5.15264 0.526H4.03264L4.01864 1.968C3.13664 2.08 2.39464 2.43 1.82064 3.018C1.24664 3.592 0.952641 4.278 0.952641 5.062C0.952641 5.902 1.23264 6.56 1.79264 7.036C2.28264 7.484 3.02464 7.876 4.04664 8.198V11.46C3.09464 11.278 2.42264 10.704 2.04464 9.71L0.602641 10.466C1.14864 11.964 2.38064 12.874 4.01864 13.042L4.03264 14.428H5.15264L5.13864 13.042C6.10464 12.93 6.87464 12.58 7.43464 11.978C7.99464 11.376 8.27464 10.704 8.27464 9.934ZM2.70264 4.964C2.70264 4.236 3.24864 3.676 4.04664 3.522V6.406C3.15064 6.056 2.70264 5.636 2.70264 4.964ZM5.11064 8.562C6.10464 8.954 6.51064 9.374 6.51064 10.032C6.51064 10.774 5.95064 11.32 5.11064 11.474V8.562Z" fill="white"/>
</svg>
