<svg width="30" height="30" viewBox="0 0 30 30" fill="none"
  xmlns="http://www.w3.org/2000/svg">
  <rect width="30" height="30" rx="7" fill="white"/>
  <rect x="2" y="2" width="26" height="26" rx="7" fill="#F5F6F8"/>
  <path fill-rule="evenodd" clip-rule="evenodd" d="M12.2118 15.1165L12.1559 17.3425C12.1535 17.4613 12.1986 17.5759 12.2815 17.6611C12.3651 17.7469 12.4793 17.7949 12.5983 17.7949H14.8099C15.2696 17.7949 15.7024 17.6161 16.0281 17.2909L20.4585 12.8677C20.8083 12.5191 21 12.0552 21 11.562C21 11.07 20.8083 10.6056 20.4585 10.257L19.7404 9.54C19.0192 8.82 17.8466 8.82 17.126 9.54L12.7161 13.9429C12.4023 14.2561 12.2232 14.6731 12.2118 15.1165ZM13.0965 15.1387C13.1025 14.9233 13.189 14.7199 13.3423 14.5675L16.7631 11.1516L17.8869 12.2748C17.9735 12.3606 18.0865 12.4038 18.2 12.4038C18.313 12.4038 18.4266 12.3606 18.5131 12.2748C18.6856 12.1014 18.6856 11.8224 18.5131 11.6496L17.3887 10.527L17.7517 10.1646C18.1273 9.78961 18.7385 9.78961 19.1147 10.1646L19.8329 10.8822C20.2085 11.2572 20.2085 11.8674 19.8329 12.243L15.4024 16.6663C15.2438 16.8247 15.0334 16.9111 14.8099 16.9111H13.0526L13.0965 15.1387ZM9.44305 15.2659C9.68704 15.2659 9.88537 15.0679 9.88537 14.8242V12.5628C9.88537 10.9488 10.8704 9.90595 12.3951 9.90595H14.6013C14.8459 9.90595 15.0442 9.70855 15.0442 9.46434C15.0442 9.22074 14.8459 9.02274 14.6013 9.02274H12.3951C10.3644 9.02274 9.00012 10.4454 9.00012 12.5628V14.8242C9.00012 15.0679 9.19844 15.2659 9.44305 15.2659ZM20.5551 14.6459C20.3105 14.6459 20.1128 14.8433 20.1128 15.0875V17.4599C20.1128 19.074 19.1272 20.1162 17.6018 20.1162H12.3949C10.8703 20.1162 9.88585 19.074 9.88585 17.4599C9.88585 17.2163 9.68752 17.0183 9.44293 17.0183C9.19892 17.0183 9 17.2163 9 17.4599C9 19.5774 10.3642 21 12.3949 21H17.6018C19.6332 21 20.9974 19.5774 20.9974 17.4599V15.0875C20.9974 14.8433 20.7991 14.6459 20.5551 14.6459Z" fill="#0B0D27"/>
</svg>
