<svg width="130" height="130" viewBox="0 0 130 130" fill="none"
  xmlns="http://www.w3.org/2000/svg">
  <rect width="130" height="130" rx="32" fill="#F6F7FB"/>
  <path d="M20.6574 75.6348C20.6574 77.0488 20.2726 78.1309 19.5031 78.8809C18.7374 79.627 17.6339 80 16.1925 80H13.8195V71.4336H16.4445C17.7765 71.4336 18.8117 71.8027 19.5499 72.541C20.2882 73.2793 20.6574 74.3105 20.6574 75.6348ZM19.6027 75.6699C19.6027 74.5527 19.3214 73.7109 18.7589 73.1445C18.2003 72.5781 17.3683 72.2949 16.2628 72.2949H14.8156V79.1387H16.0285C17.216 79.1387 18.1085 78.8477 18.7062 78.2656C19.3039 77.6797 19.6027 76.8145 19.6027 75.6699ZM25.7852 73.4609C26.0703 73.4609 26.3262 73.4844 26.5527 73.5312L26.418 74.4336C26.1523 74.375 25.918 74.3457 25.7148 74.3457C25.1953 74.3457 24.75 74.5566 24.3789 74.9785C24.0117 75.4004 23.8281 75.9258 23.8281 76.5547V80H22.8555V73.5781H23.6582L23.7695 74.7676H23.8164C24.0547 74.3496 24.3418 74.0273 24.6777 73.8008C25.0137 73.5742 25.3828 73.4609 25.7852 73.4609ZM32.1317 80L31.9383 79.0859H31.8915C31.5712 79.4883 31.2508 79.7617 30.9305 79.9062C30.6141 80.0469 30.2176 80.1172 29.7411 80.1172C29.1044 80.1172 28.6044 79.9531 28.2411 79.625C27.8817 79.2969 27.702 78.8301 27.702 78.2246C27.702 76.9277 28.7391 76.248 30.8133 76.1855L31.9032 76.1504V75.752C31.9032 75.248 31.7938 74.877 31.5751 74.6387C31.3602 74.3965 31.0145 74.2754 30.5379 74.2754C30.0028 74.2754 29.3973 74.4395 28.7215 74.7676L28.4227 74.0234C28.7391 73.8516 29.0848 73.7168 29.4598 73.6191C29.8387 73.5215 30.2176 73.4727 30.5965 73.4727C31.3622 73.4727 31.9286 73.6426 32.2958 73.9824C32.6669 74.3223 32.8524 74.8672 32.8524 75.6172V80H32.1317ZM29.9344 79.3145C30.5399 79.3145 31.0145 79.1484 31.3583 78.8164C31.7059 78.4844 31.8797 78.0195 31.8797 77.4219V76.8418L30.9071 76.8828C30.1337 76.9102 29.5751 77.0312 29.2313 77.2461C28.8915 77.457 28.7215 77.7871 28.7215 78.2363C28.7215 78.5879 28.827 78.8555 29.0379 79.0391C29.2528 79.2227 29.5516 79.3145 29.9344 79.3145ZM40.5466 73.5781V74.1934L39.3571 74.334C39.4665 74.4707 39.5642 74.6504 39.6501 74.873C39.7361 75.0918 39.779 75.3398 39.779 75.6172C39.779 76.2461 39.5642 76.748 39.1345 77.123C38.7048 77.498 38.115 77.6855 37.365 77.6855C37.1736 77.6855 36.9939 77.6699 36.8259 77.6387C36.4118 77.8574 36.2048 78.1328 36.2048 78.4648C36.2048 78.6406 36.2771 78.7715 36.4216 78.8574C36.5661 78.9395 36.8142 78.9805 37.1657 78.9805H38.3025C38.9978 78.9805 39.531 79.127 39.9021 79.4199C40.2771 79.7129 40.4646 80.1387 40.4646 80.6973C40.4646 81.4082 40.1794 81.9492 39.6091 82.3203C39.0388 82.6953 38.2068 82.8828 37.113 82.8828C36.2732 82.8828 35.6247 82.7266 35.1677 82.4141C34.7146 82.1016 34.488 81.6602 34.488 81.0898C34.488 80.6992 34.613 80.3613 34.863 80.0762C35.113 79.791 35.4646 79.5977 35.9177 79.4961C35.7536 79.4219 35.615 79.3066 35.5017 79.1504C35.3923 78.9941 35.3376 78.8125 35.3376 78.6055C35.3376 78.3711 35.4001 78.166 35.5251 77.9902C35.6501 77.8145 35.8474 77.6445 36.1169 77.4805C35.7849 77.3438 35.5134 77.1113 35.3025 76.7832C35.0954 76.4551 34.9919 76.0801 34.9919 75.6582C34.9919 74.9551 35.2028 74.4141 35.6247 74.0352C36.0466 73.6523 36.6443 73.4609 37.4177 73.4609C37.7536 73.4609 38.0564 73.5 38.3259 73.5781H40.5466ZM35.4255 81.0781C35.4255 81.4258 35.572 81.6895 35.865 81.8691C36.1579 82.0488 36.5778 82.1387 37.1247 82.1387C37.9411 82.1387 38.5446 82.0156 38.9353 81.7695C39.3298 81.5273 39.5271 81.1973 39.5271 80.7793C39.5271 80.4316 39.4196 80.1895 39.2048 80.0527C38.99 79.9199 38.5857 79.8535 37.9919 79.8535H36.8259C36.3845 79.8535 36.0407 79.959 35.7946 80.1699C35.5486 80.3809 35.4255 80.6836 35.4255 81.0781ZM35.9528 75.6348C35.9528 76.084 36.0798 76.4238 36.3337 76.6543C36.5876 76.8848 36.9411 77 37.3943 77C38.3435 77 38.8181 76.5391 38.8181 75.6172C38.8181 74.6523 38.3376 74.1699 37.3767 74.1699C36.9196 74.1699 36.5681 74.293 36.322 74.5391C36.0759 74.7852 35.9528 75.1504 35.9528 75.6348ZM47.2338 73.1387C47.2338 73.4082 47.3041 73.666 47.4448 73.9121C47.5854 74.1543 47.8256 74.4473 48.1655 74.791C48.6694 74.498 49.019 74.2285 49.2143 73.9824C49.4135 73.7324 49.5131 73.4453 49.5131 73.1211C49.5131 72.8203 49.4116 72.5762 49.2084 72.3887C49.0092 72.1973 48.7416 72.1016 48.4057 72.1016C48.058 72.1016 47.7748 72.1953 47.5561 72.3828C47.3412 72.5703 47.2338 72.8223 47.2338 73.1387ZM48.142 79.2441C49.0834 79.2441 49.8647 78.9434 50.4858 78.3418L47.9252 75.8574C47.4916 76.123 47.185 76.3438 47.0053 76.5195C46.8256 76.6914 46.6928 76.877 46.6069 77.0762C46.5209 77.2754 46.478 77.502 46.478 77.7559C46.478 78.2129 46.6283 78.5762 46.9291 78.8457C47.2338 79.1113 47.6381 79.2441 48.142 79.2441ZM45.4701 77.7793C45.4701 77.2715 45.6049 76.8223 45.8744 76.4316C46.1479 76.041 46.6362 75.6465 47.3393 75.248C47.0073 74.877 46.7807 74.5957 46.6596 74.4043C46.5424 74.2129 46.4487 74.0137 46.3783 73.8066C46.308 73.5996 46.2729 73.3848 46.2729 73.1621C46.2729 72.5762 46.4643 72.1191 46.8471 71.791C47.2299 71.4629 47.7631 71.2988 48.4467 71.2988C49.0795 71.2988 49.5776 71.4629 49.9408 71.791C50.3041 72.1152 50.4858 72.5684 50.4858 73.1504C50.4858 73.5684 50.353 73.9551 50.0873 74.3105C49.8217 74.6621 49.3823 75.0195 48.769 75.3828L51.1537 77.6738C51.3725 77.4316 51.5463 77.1484 51.6752 76.8242C51.808 76.4961 51.9194 76.1387 52.0092 75.752H52.9936C52.728 76.8691 52.3276 77.7168 51.7924 78.2949L53.5444 80H52.2026L51.1186 78.957C50.6576 79.3711 50.1889 79.668 49.7123 79.8477C49.2358 80.0273 48.7045 80.1172 48.1186 80.1172C47.2787 80.1172 46.6264 79.9102 46.1616 79.4961C45.7006 79.082 45.4701 78.5098 45.4701 77.7793ZM65.5636 75.6348C65.5636 77.0488 65.1789 78.1309 64.4093 78.8809C63.6437 79.627 62.5402 80 61.0988 80H58.7257V71.4336H61.3507C62.6828 71.4336 63.7179 71.8027 64.4562 72.541C65.1945 73.2793 65.5636 74.3105 65.5636 75.6348ZM64.5089 75.6699C64.5089 74.5527 64.2277 73.7109 63.6652 73.1445C63.1066 72.5781 62.2746 72.2949 61.1691 72.2949H59.7218V79.1387H60.9347C62.1222 79.1387 63.0148 78.8477 63.6124 78.2656C64.2101 77.6797 64.5089 76.8145 64.5089 75.6699ZM70.6914 73.4609C70.9766 73.4609 71.2324 73.4844 71.459 73.5312L71.3242 74.4336C71.0586 74.375 70.8242 74.3457 70.6211 74.3457C70.1016 74.3457 69.6562 74.5566 69.2852 74.9785C68.918 75.4004 68.7344 75.9258 68.7344 76.5547V80H67.7617V73.5781H68.5645L68.6758 74.7676H68.7227C68.9609 74.3496 69.248 74.0273 69.584 73.8008C69.9199 73.5742 70.2891 73.4609 70.6914 73.4609ZM78.6317 76.7832C78.6317 77.8301 78.368 78.6484 77.8407 79.2383C77.3133 79.8242 76.5848 80.1172 75.6551 80.1172C75.0809 80.1172 74.5712 79.9824 74.1258 79.7129C73.6805 79.4434 73.3368 79.0566 73.0946 78.5527C72.8524 78.0488 72.7313 77.459 72.7313 76.7832C72.7313 75.7363 72.993 74.9219 73.5165 74.3398C74.0399 73.7539 74.7665 73.4609 75.6962 73.4609C76.5946 73.4609 77.3075 73.7598 77.8348 74.3574C78.3661 74.9551 78.6317 75.7637 78.6317 76.7832ZM73.7391 76.7832C73.7391 77.6035 73.9032 78.2285 74.2313 78.6582C74.5594 79.0879 75.0419 79.3027 75.6786 79.3027C76.3153 79.3027 76.7977 79.0898 77.1258 78.6641C77.4579 78.2344 77.6239 77.6074 77.6239 76.7832C77.6239 75.9668 77.4579 75.3477 77.1258 74.9258C76.7977 74.5 76.3114 74.2871 75.6669 74.2871C75.0301 74.2871 74.5497 74.4961 74.2254 74.9141C73.9012 75.332 73.7391 75.9551 73.7391 76.7832ZM83.7595 80.1172C83.3415 80.1172 82.9587 80.041 82.6111 79.8887C82.2673 79.7324 81.9782 79.4941 81.7439 79.1738H81.6736C81.7204 79.5488 81.7439 79.9043 81.7439 80.2402V82.8828H80.7712V73.5781H81.5622L81.697 74.457H81.7439C81.9939 74.1055 82.2849 73.8516 82.6169 73.6953C82.9489 73.5391 83.3298 73.4609 83.7595 73.4609C84.6111 73.4609 85.2673 73.752 85.7282 74.334C86.1931 74.916 86.4255 75.7324 86.4255 76.7832C86.4255 77.8379 86.1892 78.6582 85.7165 79.2441C85.2478 79.8262 84.5954 80.1172 83.7595 80.1172ZM83.6189 74.2871C82.9626 74.2871 82.488 74.4688 82.195 74.832C81.9021 75.1953 81.7517 75.7734 81.7439 76.5664V76.7832C81.7439 77.6855 81.8943 78.332 82.195 78.7227C82.4958 79.1094 82.9782 79.3027 83.6423 79.3027C84.197 79.3027 84.6306 79.0781 84.9431 78.6289C85.2595 78.1797 85.4177 77.5605 85.4177 76.7715C85.4177 75.9707 85.2595 75.3574 84.9431 74.9316C84.6306 74.502 84.1892 74.2871 83.6189 74.2871ZM91.0854 73.5781H92.1284L93.5346 77.2402C93.8432 78.0762 94.0346 78.6797 94.1088 79.0508H94.1557C94.2065 78.8516 94.312 78.5117 94.4721 78.0312C94.6362 77.5469 95.1674 76.0625 96.0659 73.5781H97.1088L94.3491 80.8906C94.0756 81.6133 93.7553 82.125 93.3881 82.4258C93.0248 82.7305 92.5776 82.8828 92.0463 82.8828C91.7495 82.8828 91.4565 82.8496 91.1674 82.7832V82.0039C91.3823 82.0508 91.6225 82.0742 91.8881 82.0742C92.5561 82.0742 93.0327 81.6992 93.3178 80.9492L93.6752 80.0352L91.0854 73.5781ZM104.123 76.7832C104.123 77.8301 103.86 78.6484 103.332 79.2383C102.805 79.8242 102.076 80.1172 101.147 80.1172C100.573 80.1172 100.063 79.9824 99.6175 79.7129C99.1721 79.4434 98.8284 79.0566 98.5862 78.5527C98.344 78.0488 98.2229 77.459 98.2229 76.7832C98.2229 75.7363 98.4846 74.9219 99.0081 74.3398C99.5315 73.7539 100.258 73.4609 101.188 73.4609C102.086 73.4609 102.799 73.7598 103.326 74.3574C103.858 74.9551 104.123 75.7637 104.123 76.7832ZM99.2307 76.7832C99.2307 77.6035 99.3948 78.2285 99.7229 78.6582C100.051 79.0879 100.533 79.3027 101.17 79.3027C101.807 79.3027 102.289 79.0898 102.617 78.6641C102.949 78.2344 103.116 77.6074 103.116 76.7832C103.116 75.9668 102.949 75.3477 102.617 74.9258C102.289 74.5 101.803 74.2871 101.158 74.2871C100.522 74.2871 100.041 74.4961 99.7171 74.9141C99.3929 75.332 99.2307 75.9551 99.2307 76.7832ZM107.177 73.5781V77.7441C107.177 78.2676 107.296 78.6582 107.534 78.916C107.773 79.1738 108.146 79.3027 108.653 79.3027C109.325 79.3027 109.816 79.1191 110.124 78.752C110.437 78.3848 110.593 77.7852 110.593 76.9531V73.5781H111.566V80H110.763L110.622 79.1387H110.569C110.37 79.4551 110.093 79.6973 109.737 79.8652C109.386 80.0332 108.984 80.1172 108.53 80.1172C107.749 80.1172 107.163 79.9316 106.773 79.5605C106.386 79.1895 106.193 78.5957 106.193 77.7793V73.5781H107.177ZM116.992 73.4609C117.277 73.4609 117.533 73.4844 117.76 73.5312L117.625 74.4336C117.359 74.375 117.125 74.3457 116.922 74.3457C116.402 74.3457 115.957 74.5566 115.586 74.9785C115.219 75.4004 115.035 75.9258 115.035 76.5547V80H114.062V73.5781H114.865L114.977 74.7676H115.023C115.262 74.3496 115.549 74.0273 115.885 73.8008C116.221 73.5742 116.59 73.4609 116.992 73.4609ZM45.0566 90.334H43.4219V96H42.4492V90.334H41.3008V89.8945L42.4492 89.543V89.1855C42.4492 87.6074 43.1387 86.8184 44.5176 86.8184C44.8574 86.8184 45.2559 86.8867 45.7129 87.0234L45.4609 87.8027C45.0859 87.6816 44.7656 87.6211 44.5 87.6211C44.1328 87.6211 43.8613 87.7441 43.6855 87.9902C43.5098 88.2324 43.4219 88.623 43.4219 89.1621V89.5781H45.0566V90.334ZM47.2012 96H46.2285V89.5781H47.2012V96ZM46.1465 87.8379C46.1465 87.6152 46.2012 87.4531 46.3105 87.3516C46.4199 87.2461 46.5566 87.1934 46.7207 87.1934C46.877 87.1934 47.0117 87.2461 47.125 87.3516C47.2383 87.457 47.2949 87.6191 47.2949 87.8379C47.2949 88.0566 47.2383 88.2207 47.125 88.3301C47.0117 88.4355 46.877 88.4883 46.7207 88.4883C46.5566 88.4883 46.4199 88.4355 46.3105 88.3301C46.2012 88.2207 46.1465 88.0566 46.1465 87.8379ZM50.6649 96H49.6922V86.8828H50.6649V96ZM55.8689 96.1172C54.9196 96.1172 54.1696 95.8281 53.6189 95.25C53.072 94.6719 52.7985 93.8691 52.7985 92.8418C52.7985 91.8066 53.0525 90.9844 53.5603 90.375C54.072 89.7656 54.7575 89.4609 55.6169 89.4609C56.4216 89.4609 57.0583 89.7266 57.5271 90.2578C57.9958 90.7852 58.2302 91.4824 58.2302 92.3496V92.9648H53.8064C53.8259 93.7188 54.0153 94.291 54.3747 94.6816C54.738 95.0723 55.2478 95.2676 55.904 95.2676C56.5954 95.2676 57.279 95.123 57.9548 94.834V95.7012C57.611 95.8496 57.2849 95.9551 56.9763 96.0176C56.6716 96.084 56.3025 96.1172 55.8689 96.1172ZM55.6052 90.2754C55.0896 90.2754 54.6775 90.4434 54.3689 90.7793C54.0642 91.1152 53.8845 91.5801 53.8298 92.1738H57.1872C57.1872 91.5605 57.0505 91.0918 56.7771 90.7676C56.5036 90.4395 56.113 90.2754 55.6052 90.2754ZM68.2631 96V91.8457C68.2631 91.3223 68.144 90.9316 67.9057 90.6738C67.6674 90.416 67.2944 90.2871 66.7866 90.2871C66.1108 90.2871 65.6166 90.4707 65.3041 90.8379C64.9955 91.2051 64.8412 91.8066 64.8412 92.6426V96H63.8686V86.8828H64.8412V89.6426C64.8412 89.9746 64.8256 90.25 64.7944 90.4688H64.853C65.0444 90.1602 65.3158 89.918 65.6674 89.7422C66.0229 89.5625 66.4272 89.4727 66.8803 89.4727C67.6655 89.4727 68.2533 89.6602 68.644 90.0352C69.0385 90.4062 69.2358 90.998 69.2358 91.8105V96H68.2631ZM74.3811 96.1172C73.4319 96.1172 72.6819 95.8281 72.1311 95.25C71.5843 94.6719 71.3108 93.8691 71.3108 92.8418C71.3108 91.8066 71.5647 90.9844 72.0725 90.375C72.5843 89.7656 73.2698 89.4609 74.1292 89.4609C74.9339 89.4609 75.5706 89.7266 76.0393 90.2578C76.5081 90.7852 76.7425 91.4824 76.7425 92.3496V92.9648H72.3186C72.3382 93.7188 72.5276 94.291 72.887 94.6816C73.2503 95.0723 73.76 95.2676 74.4163 95.2676C75.1077 95.2676 75.7913 95.123 76.4671 94.834V95.7012C76.1233 95.8496 75.7971 95.9551 75.4886 96.0176C75.1839 96.084 74.8147 96.1172 74.3811 96.1172ZM74.1175 90.2754C73.6018 90.2754 73.1897 90.4434 72.8811 90.7793C72.5764 91.1152 72.3968 91.5801 72.3421 92.1738H75.6995C75.6995 91.5605 75.5628 91.0918 75.2893 90.7676C75.0159 90.4395 74.6253 90.2754 74.1175 90.2754ZM81.7648 89.4609C82.0499 89.4609 82.3058 89.4844 82.5324 89.5312L82.3976 90.4336C82.132 90.375 81.8976 90.3457 81.6945 90.3457C81.1749 90.3457 80.7296 90.5566 80.3585 90.9785C79.9913 91.4004 79.8078 91.9258 79.8078 92.5547V96H78.8351V89.5781H79.6378L79.7492 90.7676H79.796C80.0343 90.3496 80.3214 90.0273 80.6574 89.8008C80.9933 89.5742 81.3624 89.4609 81.7648 89.4609ZM86.875 96.1172C85.9258 96.1172 85.1758 95.8281 84.625 95.25C84.0781 94.6719 83.8047 93.8691 83.8047 92.8418C83.8047 91.8066 84.0586 90.9844 84.5664 90.375C85.0781 89.7656 85.7637 89.4609 86.623 89.4609C87.4277 89.4609 88.0645 89.7266 88.5332 90.2578C89.002 90.7852 89.2363 91.4824 89.2363 92.3496V92.9648H84.8125C84.832 93.7188 85.0215 94.291 85.3809 94.6816C85.7441 95.0723 86.2539 95.2676 86.9102 95.2676C87.6016 95.2676 88.2852 95.123 88.9609 94.834V95.7012C88.6172 95.8496 88.291 95.9551 87.9824 96.0176C87.6777 96.084 87.3086 96.1172 86.875 96.1172ZM86.6113 90.2754C86.0957 90.2754 85.6836 90.4434 85.375 90.7793C85.0703 91.1152 84.8906 91.5801 84.8359 92.1738H88.1934C88.1934 91.5605 88.0566 91.0918 87.7832 90.7676C87.5098 90.4395 87.1191 90.2754 86.6113 90.2754Z" fill="#E8E8E8"/>
  <path fill-rule="evenodd" clip-rule="evenodd" d="M59.492 29H72.493C77.5979 29 81 32.6433 81 37.8711V50.1273C81 55.3554 77.5977 59 72.493 59H59.492C54.3897 59 51 55.3583 51 50.1273V37.8711C51 32.6459 54.3995 29 59.492 29ZM72.493 31.2557H59.492C55.681 31.2557 53.2545 33.858 53.2545 37.8711V50.1273C53.2545 54.147 55.672 56.7443 59.492 56.7443H72.493C76.3169 56.7443 78.7455 54.1427 78.7455 50.1273V37.8711C78.7455 33.8562 76.3172 31.2557 72.493 31.2557ZM68.2964 44.6883C69.6273 43.0673 72.0239 42.9033 73.5613 44.2752L73.7568 44.4629L76.8771 47.6842C77.3103 48.1315 77.2992 48.8454 76.852 49.2789C76.4457 49.6731 75.819 49.6997 75.3828 49.3652L75.2582 49.254L72.138 46.0329C71.5944 45.4721 70.7108 45.4669 70.159 45.9903L70.038 46.1206L66.6884 50.1968C65.5035 51.6409 63.3717 51.7957 61.9924 50.5854L61.8091 50.4121L60.4723 49.0472C60.1211 48.6826 59.5611 48.6481 59.1712 48.9424L59.048 49.0526L56.7499 51.4782C56.3216 51.9303 55.6081 51.9494 55.1563 51.5209C54.7456 51.1313 54.6925 50.5058 55.008 50.0558L55.1137 49.9263L57.4113 47.5012C58.6209 46.2228 60.6128 46.1547 61.9013 47.295L62.0891 47.475L63.4191 48.833C63.8079 49.2297 64.4312 49.24 64.8329 48.8829L64.9464 48.7649L68.2964 44.6883ZM60.859 35.9619C58.7816 35.9619 57.0969 37.6487 57.0969 39.7275C57.0969 41.8061 58.7816 43.493 60.859 43.493C62.9364 43.493 64.6226 41.8061 64.6226 39.7275C64.6226 37.6488 62.9364 35.9619 60.859 35.9619ZM60.859 38.2176C61.6913 38.2176 62.368 38.8946 62.368 39.7275C62.368 40.5603 61.6913 41.2373 60.859 41.2373C60.0271 41.2373 59.3515 40.5607 59.3515 39.7275C59.3515 38.8942 60.0271 38.2176 60.859 38.2176Z" fill="#E8E8E8"/>
</svg>
