<svg width="30" height="30" viewBox="0 0 30 30" fill="none"
  xmlns="http://www.w3.org/2000/svg">
  <path fill-rule="evenodd" clip-rule="evenodd" d="M8.49198 0H21.493C26.5979 0 30 3.64331 30 8.87112V21.1273C30 26.3554 26.5977 30 21.493 30H8.49198C3.38965 30 0 26.3583 0 21.1273V8.87112C0 3.64589 3.39954 0 8.49198 0ZM21.493 2.25574H8.49198C4.68099 2.25574 2.25451 4.85805 2.25451 8.87112V21.1273C2.25451 25.147 4.67203 27.7443 8.49198 27.7443H21.493C25.3169 27.7443 27.7455 25.1427 27.7455 21.1273V8.87112C27.7455 4.85616 25.3172 2.25574 21.493 2.25574ZM17.2964 15.6883C18.6273 14.0673 21.0239 13.9033 22.5613 15.2752L22.7568 15.4629L25.8771 18.6842C26.3103 19.1315 26.2992 19.8454 25.852 20.2789C25.4457 20.6731 24.819 20.6997 24.3828 20.3652L24.2582 20.254L21.138 17.0329C20.5944 16.4721 19.7108 16.4669 19.159 16.9903L19.038 17.1206L15.6884 21.1968C14.5035 22.6409 12.3717 22.7957 10.9924 21.5854L10.8091 21.4121L9.47229 20.0472C9.12114 19.6826 8.56114 19.6481 8.17119 19.9424L8.04801 20.0526L5.74992 22.4782C5.32163 22.9303 4.60813 22.9494 4.1563 22.5209C3.74556 22.1313 3.69246 21.5058 4.00799 21.0558L4.11371 20.9263L6.41131 18.5012C7.6209 17.2228 9.61278 17.1547 10.9013 18.295L11.0891 18.475L12.4191 19.833C12.8079 20.2297 13.4312 20.24 13.8329 19.8829L13.9464 19.7649L17.2964 15.6883ZM9.85897 6.96186C7.78158 6.96186 6.09694 8.64874 6.09694 10.7275C6.09694 12.8061 7.78158 14.493 9.85897 14.493C11.9364 14.493 13.6226 12.8061 13.6226 10.7275C13.6226 8.64884 11.9364 6.96186 9.85897 6.96186ZM9.85898 9.2176C10.6913 9.2176 11.368 9.89464 11.368 10.7275C11.368 11.5603 10.6913 12.2373 9.85898 12.2373C9.02711 12.2373 8.35146 11.5607 8.35146 10.7275C8.35146 9.89417 9.02711 9.2176 9.85898 9.2176Z" fill="#E8E8E8"/>
</svg>
