<svg width="76" height="76" viewBox="0 0 76 76" fill="none"
  xmlns="http://www.w3.org/2000/svg">
  <path d="M23.4 44.2L8.9 63H67.1L48.4 38L33.9 56.7L23.4 44.2ZM75.5 67.1C75.5 69.3667 74.6667 71.3333 73 73C71.3333 74.6667 69.3667 75.5 67.1 75.5H8.9C6.63333 75.5 4.66667 74.6667 3 73C1.33333 71.3333 0.5 69.3667 0.5 67.1V8.9C0.5 6.63333 1.33333 4.66666 3 3C4.66667 1.33333 6.63333 0.499998 8.9 0.499998H67.1C69.3667 0.499998 71.3333 1.33333 73 3C74.6667 4.66666 75.5 6.63333 75.5 8.9V67.1Z" fill="#96969A"/>
</svg>
