<svg width="20" height="20" viewBox="0 0 20 20" fill="none"
  xmlns="http://www.w3.org/2000/svg">
  <path fill-rule="evenodd" clip-rule="evenodd" d="M1.50004 11.9489C1.50004 12.3527 1.16404 12.6804 0.75012 12.6804C0.3362 12.6804 0.00019 12.3527 0.00019 11.9489V4.71437C0.00019 2.39058 1.93831 0.5 4.32151 0.5H9.0675C11.4555 0.5 13.3985 2.39533 13.3985 4.72482V5.6093C13.3985 6.01212 13.0625 6.33988 12.6486 6.33988C12.2347 6.33988 11.8987 6.01212 11.8987 5.6093V4.72482C11.8987 3.20096 10.6287 1.96306 9.0675 1.96306H4.32151C2.76517 1.96306 1.50004 3.19811 1.50004 4.71437V11.9489ZM11.8985 14.3916C11.8985 13.9879 12.2345 13.6601 12.6484 13.6601C13.0623 13.6601 13.3983 13.9879 13.3983 14.3916V15.2856C13.3983 17.6094 11.4602 19.5 9.077 19.5H4.33008C1.94298 19.5 0 17.6047 0 15.2752C0 14.8714 0.336 14.5446 0.74992 14.5446C1.16384 14.5446 1.49985 14.8714 1.49985 15.2752C1.49985 16.799 2.76985 18.0369 4.33008 18.0369H9.077C10.6333 18.0369 11.8985 16.8028 11.8985 15.2856V14.3916ZM19.9433 9.7209C19.8274 9.4463 19.5537 9.2677 19.2499 9.2677H7.5491C7.13518 9.2677 6.7982 9.5964 6.7982 10.0002C6.7982 10.404 7.13518 10.7317 7.5491 10.7317H17.4345L15.8752 12.2461C15.5811 12.5311 15.5811 12.9938 15.8732 13.2807C16.0193 13.4241 16.2122 13.4963 16.404 13.4963C16.5959 13.4963 16.7868 13.4241 16.9339 13.2826L19.7797 10.5189C19.9939 10.3099 20.0592 9.9945 19.9433 9.7209ZM17.1218 8.6607C16.9309 8.6607 16.74 8.5895 16.594 8.4489L15.8762 7.7563C15.582 7.47223 15.5801 7.00862 15.8713 6.72265C16.1635 6.43384 16.6368 6.43194 16.9319 6.71695L17.6487 7.40858C17.9438 7.69359 17.9458 8.1563 17.6546 8.4432C17.5075 8.5876 17.3147 8.6607 17.1218 8.6607Z" fill="white"/>
</svg>
