<svg width="15" height="18" viewBox="0 0 15 18" fill="none"
  xmlns="http://www.w3.org/2000/svg">
  <path fill-rule="evenodd" clip-rule="evenodd" d="M13.418 6.1167C13.418 7.24707 13.7109 7.91325 14.3554 8.68104C14.8439 9.24669 15 9.97272 15 10.7604C15 11.5472 14.7466 12.2941 14.2388 12.9005C13.5741 13.6275 12.6366 14.0916 11.6799 14.1723C10.2934 14.2928 8.90621 14.3943 7.50044 14.3943C6.09379 14.3943 4.7074 14.3337 3.32096 14.1723C2.36335 14.0916 1.4259 13.6275 0.762062 12.9005C0.254312 12.2941 0 11.5472 0 10.7604C0 9.97272 0.156971 9.24669 0.64455 8.68104C1.30927 7.91325 1.58287 7.24707 1.58287 6.1167V5.73327C1.58287 4.21951 1.95294 3.22967 2.715 2.26067C3.84799 0.84753 5.66413 0 7.461 0H7.53988C9.37535 0 11.2502 0.888318 12.364 2.36219C13.0865 3.31124 13.418 4.25938 13.418 5.73327V6.1167ZM4.91794 16.2547C4.91794 15.8016 5.32572 15.5939 5.70281 15.5051C6.14391 15.41 8.83173 15.41 9.27282 15.5051C9.64994 15.5939 10.0577 15.8016 10.0577 16.2547C10.0357 16.6862 9.78759 17.0688 9.44471 17.3117C9.00009 17.6652 8.47835 17.889 7.93288 17.9698C7.63121 18.0096 7.33482 18.0105 7.04365 17.9698C6.49729 17.889 5.97556 17.6652 5.53181 17.3108C5.18804 17.0688 4.93987 16.6862 4.91794 16.2547Z" fill="#0E4944"/>
</svg>
