<svg width="18" height="20" viewBox="0 0 18 20" fill="none"
  xmlns="http://www.w3.org/2000/svg">
  <path fill-rule="evenodd" clip-rule="evenodd" d="M11.25 3.5C11.25 1.70507 12.7051 0.25 14.5 0.25C16.2949 0.25 17.75 1.70507 17.75 3.5C17.75 5.29493 16.2949 6.75 14.5 6.75C13.5404 6.75 12.6779 6.33409 12.083 5.6727L9.3657 7.15487L6.32515 8.8923C6.59552 9.3664 6.75 9.9152 6.75 10.5C6.75 10.7963 6.71034 11.0834 6.63603 11.3562L12.083 14.3273C12.6779 13.6659 13.5404 13.25 14.5 13.25C16.2949 13.25 17.75 14.7051 17.75 16.5C17.75 18.2949 16.2949 19.75 14.5 19.75C12.7051 19.75 11.25 18.2949 11.25 16.5C11.25 16.2036 11.2897 15.9166 11.364 15.6438L5.91704 12.6727C5.32212 13.3341 4.45963 13.75 3.5 13.75C1.70507 13.75 0.25 12.2949 0.25 10.5C0.25 8.7051 1.70507 7.25 3.5 7.25C4.15068 7.25 4.7567 7.44122 5.26492 7.77052L8.6343 5.84514L11.364 4.35625C11.2897 4.08344 11.25 3.79635 11.25 3.5ZM14.5 1.75C13.5335 1.75 12.75 2.5335 12.75 3.5C12.75 4.4665 13.5335 5.25 14.5 5.25C15.4665 5.25 16.25 4.4665 16.25 3.5C16.25 2.5335 15.4665 1.75 14.5 1.75ZM3.5 8.75C2.5335 8.75 1.75 9.5335 1.75 10.5C1.75 11.4665 2.5335 12.25 3.5 12.25C4.4665 12.25 5.25 11.4665 5.25 10.5C5.25 9.5335 4.4665 8.75 3.5 8.75ZM12.75 16.5C12.75 15.5335 13.5335 14.75 14.5 14.75C15.4665 14.75 16.25 15.5335 16.25 16.5C16.25 17.4665 15.4665 18.25 14.5 18.25C13.5335 18.25 12.75 17.4665 12.75 16.5Z" fill="white"/>
</svg>
