<svg width="20" height="18" viewBox="0 0 20 18" fill="none"
  xmlns="http://www.w3.org/2000/svg">
  <g opacity="0.5">
    <path fill-rule="evenodd" clip-rule="evenodd" d="M4.53263 14.4522C4.53263 14.9123 4.90178 15.2857 5.35662 15.2857C5.81147 15.2857 6.18061 14.9123 6.18061 14.4522V2.8523L8.8053 5.51724C9.1261 5.84397 9.6469 5.84397 9.9699 5.51946C10.2929 5.19496 10.294 4.66708 9.9721 4.34036L5.94001 0.245151C5.7049 0.00511053 5.34893 -0.0649095 5.04241 0.0629005C4.73369 0.191811 4.53263 0.495201 4.53263 0.833041V14.4522ZM1.32413 5.7624C1.11429 5.7624 0.903339 5.68127 0.742939 5.51902C0.419939 5.19451 0.418839 4.66775 0.740739 4.34102L2.34478 2.71072C2.66668 2.38399 3.18744 2.38399 3.51045 2.7085C3.83235 3.033 3.83345 3.56088 3.51264 3.88761L1.90751 5.5168C1.74711 5.68127 1.53507 5.7624 1.32413 5.7624ZM14.859 17.9367C14.9601 17.9789 15.0666 18 15.1732 18C15.3885 18 15.5995 17.9155 15.7566 17.7544L19.2074 14.2482C19.5283 13.9215 19.5272 13.3936 19.2053 13.0691C18.8822 12.7446 18.3604 12.7457 18.0396 13.0713L15.9972 15.1484V3.54621C15.9972 3.08612 15.6291 2.71272 15.1732 2.71272C14.7184 2.71272 14.3492 3.08612 14.3492 3.54621V17.1665C14.3492 17.5044 14.5503 17.8077 14.859 17.9367ZM12.1607 15.2875C12.3222 15.452 12.5342 15.5331 12.7452 15.5331C12.955 15.5331 13.166 15.452 13.3264 15.2897C13.6494 14.9652 13.6505 14.4385 13.3297 14.1117L11.7256 12.4814C11.4026 12.1547 10.8819 12.1547 10.56 12.4792C10.2369 12.8037 10.2358 13.3316 10.5567 13.6583L12.1607 15.2875Z" fill="white"/>
  </g>
</svg>
